<?xml version="1.0" encoding="UTF-8"?>
<svg
  xmlns="http://www.w3.org/2000/svg"
  xmlns:xlink="http://www.w3.org/1999/xlink"
  version="1.1"
  width="253.1761pt"
  height="187.5979pt"
  viewBox="0 0 253.1761 187.5979"
>
  <defs>
    <clipPath id="clip1">
      <path d="M 0 0 L 253 0 L 253 187.597656 L 0 187.597656 Z M 0 0 "/>
    </clipPath>
  </defs>
  <g id="surface1">
    <path style=" stroke:none;fill-rule:nonzero;fill:rgb(35.293579%,48.234558%,60.784912%);fill-opacity:1;" d="M 61.414062 123.304688 L 98.667969 123.304688 C 94.847656 115.445312 92.515625 107.128906 92.035156 97.929688 L 36.039062 97.929688 C 36.039062 111.945312 47.398438 123.304688 61.414062 123.304688 "/>
    <g clip-path="url(#clip1)" clip-rule="nonzero">
      <path style=" stroke:none;fill-rule:nonzero;fill:rgb(0.784302%,35.293579%,58.824158%);fill-opacity:1;" d="M 158.09375 0.5625 L 0.195312 0.5625 C 0.195312 14.945312 11.855469 26.609375 26.242188 26.609375 L 158.425781 26.609375 C 195.511719 26.609375 226.285156 56.222656 226.644531 93.304688 C 227.007812 130.753906 196.652344 161.332031 159.285156 161.332031 C 143.105469 161.332031 128.25 155.589844 116.625 146.046875 L 81.699219 146.046875 C 98.46875 171 126.980469 187.378906 159.285156 187.378906 C 211.097656 187.378906 253.195312 144.976562 252.691406 93.050781 C 252.191406 41.625 209.519531 0.5625 158.09375 0.5625 "/>
    </g>
    <path style=" stroke:none;fill-rule:nonzero;fill:rgb(35.293579%,48.234558%,60.784912%);fill-opacity:1;" d="M 19.167969 48.808594 C 19.167969 63.195312 30.828125 74.855469 45.214844 74.855469 L 94.007812 74.855469 C 96.769531 65.09375 101.667969 56.234375 108.167969 48.808594 Z M 19.167969 48.808594 "/>
    <path style=" stroke:none;fill-rule:evenodd;fill:rgb(0.784302%,35.293579%,58.824158%);fill-opacity:1;" d="M 126.632812 102.460938 C 126.632812 94.691406 132.917969 88.40625 140.683594 88.40625 C 148.457031 88.40625 154.738281 94.691406 154.738281 102.460938 C 154.738281 110.1875 148.457031 116.472656 140.683594 116.472656 C 132.917969 116.472656 126.632812 110.1875 126.632812 102.460938 M 137.671875 75.417969 C 136.90625 75.5 136.3125 76.394531 136.3125 77.15625 C 136.3125 79.664062 134.867188 81.871094 132.617188 82.804688 C 130.28125 83.738281 127.566406 83.144531 125.867188 81.273438 C 125.316406 80.679688 124.425781 80.597656 123.832031 81.105469 C 122.175781 82.378906 120.730469 83.820312 119.457031 85.394531 C 118.945312 86.03125 119.03125 86.921875 119.628906 87.472656 C 121.410156 89.085938 122.089844 92.015625 121.15625 94.265625 C 120.179688 96.601562 117.800781 98.089844 115.253906 97.960938 C 114.445312 97.875 113.765625 98.46875 113.640625 99.277344 C 113.554688 100.296875 113.46875 101.3125 113.46875 102.332031 L 113.46875 102.503906 C 113.46875 103.480469 113.511719 104.457031 113.640625 105.390625 C 113.726562 106.195312 114.402344 106.792969 115.210938 106.75 C 117.714844 106.664062 120.050781 108.148438 120.984375 110.484375 C 121.917969 112.691406 121.238281 115.582031 119.457031 117.234375 C 118.863281 117.746094 118.820312 118.636719 119.285156 119.273438 C 120.5625 120.886719 122.046875 122.375 123.660156 123.6875 C 124.253906 124.15625 125.1875 124.113281 125.699219 123.519531 C 127.4375 121.609375 130.15625 121.015625 132.492188 121.988281 C 134.742188 122.925781 136.183594 125.261719 136.183594 127.890625 C 136.140625 128.785156 136.738281 129.378906 137.542969 129.464844 C 138.519531 129.589844 139.539062 129.675781 140.558594 129.675781 L 140.726562 129.675781 C 141.746094 129.675781 142.722656 129.589844 143.699219 129.503906 C 144.464844 129.421875 145.058594 128.484375 145.058594 127.722656 C 144.972656 125.34375 146.460938 123.050781 148.796875 122.117188 C 151.085938 121.140625 153.804688 121.777344 155.503906 123.644531 C 156.054688 124.199219 156.945312 124.28125 157.542969 123.816406 C 159.152344 122.542969 160.640625 121.097656 161.914062 119.484375 C 162.425781 118.847656 162.339844 117.957031 161.742188 117.40625 C 159.960938 115.792969 159.28125 112.863281 160.214844 110.65625 C 161.191406 108.277344 163.570312 106.792969 166.117188 106.960938 C 166.925781 107.003906 167.644531 106.410156 167.730469 105.601562 C 167.859375 104.585938 167.902344 103.523438 167.902344 102.460938 C 167.902344 101.484375 167.859375 100.507812 167.730469 99.488281 C 167.644531 98.722656 166.964844 98.128906 166.160156 98.128906 C 163.65625 98.257812 161.320312 96.730469 160.386719 94.4375 C 159.453125 92.1875 160.132812 89.300781 161.914062 87.6875 C 162.507812 87.132812 162.550781 86.242188 162.085938 85.648438 C 160.808594 83.992188 159.324219 82.507812 157.710938 81.230469 C 157.117188 80.722656 156.183594 80.808594 155.671875 81.402344 C 153.933594 83.269531 151.214844 83.90625 148.878906 82.929688 C 146.671875 81.996094 145.1875 79.746094 145.1875 77.328125 L 145.1875 76.988281 C 145.269531 76.222656 144.632812 75.5 143.871094 75.417969 C 141.789062 75.160156 139.710938 75.160156 137.671875 75.417969 "/>
    <path style=" stroke:none;fill-rule:evenodd;fill:rgb(35.293579%,48.234558%,60.784912%);fill-opacity:1;" d="M 174.222656 79.386719 C 174.222656 73.824219 178.726562 69.324219 184.242188 69.324219 C 189.804688 69.324219 194.265625 73.824219 194.265625 79.386719 C 194.265625 84.90625 189.804688 89.40625 184.242188 89.40625 C 178.726562 89.40625 174.222656 84.90625 174.222656 79.386719 M 182.121094 60.070312 C 181.570312 60.113281 181.144531 60.75 181.144531 61.300781 C 181.144531 63.082031 180.082031 64.65625 178.46875 65.332031 C 176.8125 66.015625 174.902344 65.589844 173.671875 64.230469 C 173.289062 63.847656 172.652344 63.761719 172.230469 64.144531 C 171.039062 65.035156 170.019531 66.097656 169.128906 67.203125 C 168.746094 67.667969 168.789062 68.304688 169.214844 68.6875 C 170.53125 69.832031 170.996094 71.914062 170.316406 73.527344 C 169.597656 75.183594 167.898438 76.246094 166.113281 76.160156 C 165.519531 76.117188 165.011719 76.542969 164.96875 77.09375 C 164.882812 77.816406 164.839844 78.539062 164.839844 79.261719 L 164.839844 79.386719 C 164.839844 80.109375 164.882812 80.789062 164.96875 81.46875 C 165.011719 82.019531 165.519531 82.445312 166.070312 82.445312 C 167.855469 82.359375 169.511719 83.417969 170.191406 85.074219 C 170.871094 86.691406 170.402344 88.769531 169.128906 89.914062 C 168.703125 90.296875 168.660156 90.933594 169.003906 91.359375 C 169.894531 92.546875 170.957031 93.609375 172.101562 94.5 C 172.527344 94.882812 173.207031 94.796875 173.585938 94.417969 C 174.777344 93.058594 176.730469 92.589844 178.425781 93.3125 C 180 93.992188 181.058594 95.648438 181.058594 97.515625 C 181.015625 98.152344 181.441406 98.578125 181.992188 98.660156 C 182.714844 98.746094 183.4375 98.789062 184.160156 98.789062 L 184.285156 98.789062 C 185.007812 98.789062 185.730469 98.746094 186.410156 98.660156 C 186.960938 98.621094 187.386719 97.941406 187.386719 97.390625 C 187.34375 95.691406 188.363281 94.078125 190.019531 93.398438 C 191.675781 92.71875 193.628906 93.144531 194.816406 94.5 C 195.199219 94.882812 195.835938 94.96875 196.300781 94.585938 C 197.449219 93.695312 198.511719 92.675781 199.402344 91.53125 C 199.742188 91.0625 199.699219 90.425781 199.273438 90.042969 C 198 88.898438 197.53125 86.816406 198.210938 85.203125 C 198.890625 83.546875 200.589844 82.484375 202.417969 82.570312 C 202.96875 82.613281 203.476562 82.1875 203.5625 81.636719 C 203.648438 80.871094 203.6875 80.152344 203.6875 79.386719 C 203.6875 78.664062 203.648438 77.984375 203.5625 77.265625 C 203.476562 76.710938 203.011719 76.289062 202.457031 76.289062 C 200.632812 76.371094 198.976562 75.3125 198.296875 73.65625 C 197.660156 72.042969 198.128906 70.003906 199.402344 68.816406 C 199.824219 68.433594 199.867188 67.796875 199.527344 67.371094 C 198.59375 66.183594 197.574219 65.164062 196.429688 64.230469 C 195.960938 63.847656 195.324219 63.933594 194.941406 64.359375 C 193.710938 65.671875 191.757812 66.140625 190.101562 65.417969 C 188.53125 64.78125 187.472656 63.167969 187.472656 61.472656 L 187.472656 61.214844 C 187.511719 60.664062 187.089844 60.15625 186.535156 60.070312 C 185.050781 59.898438 183.566406 59.898438 182.121094 60.070312 "/>
  </g>
</svg>
