<svg xmlns="http://www.w3.org/2000/svg" viewBox="0 0 954.2 187">
  <defs>
    <clipPath id="a">
      <path d="M0 0h253v187.6H0z"/>
    </clipPath>
  </defs>
  <path fill="#597a99" d="M61.2 122.7h37.3a64.9 64.9 0 0 1-6.7-25.3h-56c0 14 11.4 25.3 25.4 25.3"/>
  <g clip-path="url(#a)" transform="translate(-.2 -.6)">
    <path fill="#005994" d="M158 .6H.3a26 26 0 0 0 26 26h132.2a68 68 0 0 1 68.2 66.7 67.4 67.4 0 0 1-110 52.7h-35A93.3 93.3 0 1 0 158.2.6"/>
  </g>
  <path fill="#597a99" d="M19 48.2a26 26 0 0 0 26 26h48.8a67.4 67.4 0 0 1 14.2-26z"/>
  <path fill="#005994" fill-rule="evenodd" d="M126.4 101.9a14 14 0 1 1 28.1 0 14 14 0 0 1-28 0m11-27c-.8 0-1.4 1-1.4 1.7a6 6 0 0 1-3.7 5.6 6 6 0 0 1-6.7-1.5c-.6-.6-1.5-.7-2-.2a26 26 0 0 0-4.4 4.3c-.6.7-.5 1.6.1 2.1a6.3 6.3 0 0 1 1.6 6.8 6 6 0 0 1-6 3.7c-.8 0-1.4.5-1.6 1.3l-.1 3v.2l.1 3c.1.7.8 1.3 1.6 1.3a6 6 0 0 1 5.8 3.7c1 2.2.2 5.1-1.5 6.8-.6.5-.7 1.4-.2 2 1.3 1.6 2.7 3.1 4.4 4.4.6.5 1.5.4 2-.1a6 6 0 0 1 6.8-1.6c2.2 1 3.7 3.3 3.7 6 0 .8.5 1.4 1.3 1.5l3 .2h.2c1 0 2 0 3-.2.8 0 1.4-1 1.4-1.7a6 6 0 0 1 10.4-4c.6.4 1.4.5 2 0 1.7-1.2 3.1-2.7 4.4-4.3.5-.6.4-1.5-.2-2a6.3 6.3 0 0 1-1.5-6.8 6 6 0 0 1 6-3.7c.7 0 1.4-.6 1.5-1.4a25.1 25.1 0 0 0 0-6c0-.8-.7-1.4-1.5-1.4a6 6 0 0 1-5.8-3.7c-1-2.3-.3-5.2 1.5-6.8.6-.5.7-1.4.2-2a25.6 25.6 0 0 0-4.4-4.4c-.6-.5-1.5-.5-2 .1a6.1 6.1 0 0 1-6.8 1.6 6.1 6.1 0 0 1-3.7-5.6v-.4c0-.7-.6-1.5-1.3-1.5a25 25 0 0 0-6.2 0"/>
  <path fill="#597a99" fill-rule="evenodd" d="M174 78.8a10 10 0 1 1 20 0 10 10 0 0 1-20 0m8-19.3c-.6 0-1 .7-1 1.2 0 1.8-1.1 3.4-2.7 4-1.7.8-3.6.3-4.8-1-.4-.4-1-.5-1.5-.1-1.2.9-2.2 2-3 3a1 1 0 0 0 0 1.5 4.4 4.4 0 0 1 1.1 4.9 4.4 4.4 0 0 1-4.2 2.6 1 1 0 0 0-1.1 1l-.2 2.1v.1c0 .7 0 1.4.2 2.1 0 .6.5 1 1 1 1.9-.1 3.5 1 4.2 2.6.7 1.6.2 3.7-1 4.9a1 1 0 0 0-.2 1.4c.9 1.2 2 2.2 3.1 3.1.4.4 1.1.3 1.5 0a4.2 4.2 0 0 1 4.8-1.1c1.6.6 2.7 2.3 2.7 4.2 0 .6.3 1 .9 1.1l2.2.1 2.2-.1c.6 0 1-.7 1-1.3 0-1.7 1-3.3 2.6-4 1.7-.6 3.6-.2 4.8 1.1.4.4 1 .5 1.5.1 1.2-.9 2.2-1.9 3.1-3 .3-.5.3-1.1-.1-1.5a4.5 4.5 0 0 1-1-4.9 4.3 4.3 0 0 1 4.1-2.6c.6 0 1-.4 1.2-1a19.8 19.8 0 0 0 0-4.3c-.1-.6-.6-1-1.1-1-1.9.1-3.5-1-4.2-2.6a4.6 4.6 0 0 1 1.1-4.8c.4-.4.5-1 .1-1.5-.9-1.2-2-2.2-3-3.1a1 1 0 0 0-1.6.1 4.3 4.3 0 0 1-4.8 1 4.3 4.3 0 0 1-2.6-3.9v-.2c0-.6-.4-1.1-1-1.2a19 19 0 0 0-4.4 0"/>
  <g stroke="#000" stroke-width=".8" aria-label="RailToolkit">
    <g fill="#005994">
      <path d="m371.1 141.8-30.5-34.4c19.1-4 25.5-17.9 25.5-31.7 0-17.4-12.6-33.3-36.3-33.4l-48-.2v101h19v-33.7h18.3l29.4 33.7H371zM329.8 60c12 0 17.3 8 17.3 16.1s-5.2 16.1-17.3 16.1h-29V60zM433.3 81.9c-4-7-13.1-11.5-22.6-11.5-20.7-.2-37 12.6-37 37.1 0 25 15.5 37.9 36.6 37.7 7.9-.1 19-4.1 23-12.5l.9 10.4h16.5V72H434zm-21 4.1c27.6 0 27.6 43.1 0 43.1-11.7 0-21-8-21-21.6 0-13.5 9.3-21.5 21-21.5zM483.1 71.8V143h-17.5V71.8zM464 52c0 13.6 20.7 13.6 20.7 0S464 38.4 464 52zM499 42.4v100.7h17.4V42.4z"/>
    </g>
    <g fill="#597a99" stroke="none">
      <path d="M559.2 143h19V59.6h32V42.3h-83v17.3h32zM634.3 70.6a35.5 35.5 0 0 0-36.7 37c0 20.5 13.8 37 36.9 37s37-16.5 37-37c0-20.3-14.6-37-37.2-37zm.2 16c11.8 0 19.3 10.4 19.3 21 0 10.8-6.5 21-19.3 21s-19.3-10.2-19.3-21c0-10.6 6.6-21 19.3-21zM717 70.6a35.5 35.5 0 0 0-36.7 37c0 20.5 13.8 37 36.8 37s37-16.5 37-37c0-20.3-14.5-37-37.1-37zm.1 16c11.8 0 19.3 10.4 19.3 21 0 10.8-6.5 21-19.3 21s-19.3-10.2-19.3-21c0-10.6 6.7-21 19.3-21zM766.2 42.4v100.7h17.5V42.4zM798.6 42.4v100.7h17.6V111l27.8 32h21.2v-1.2l-33-36.3 29-32.4v-1H840l-23.9 28.5V42.4zM890.8 71.8V143h-17.6V71.8zM871.6 52c0 13.6 20.8 13.6 20.8 0s-20.8-13.7-20.8 0zM913.8 54v18.2h-13.2v15.1h13.2V118c0 17.7 10.1 26.5 25.5 26 5.3-.2 9.5-1 14.6-3l-5-15a20 20 0 0 1-8.4 2.1c-5.5 0-9.2-3.3-9.2-10V87.2H951v-15h-19.6V52z"/>
    </g>
  </g>
</svg>
